<svg width="42" height="54" viewBox="0 0 42 54" fill="none" xmlns="http://www.w3.org/2000/svg">
<g clip-path="url(#clip0_40_65)">
<path d="M18 5.64001H12V11.64H18V5.64001Z" fill="#663D00"/>
<path d="M12 5.64001H6V11.64H12V5.64001Z" fill="#663D00"/>
<path d="M24 5.64001H18V11.64H24V5.64001Z" fill="#663D00"/>
<path d="M30 5.64001H24V11.64H30V5.64001Z" fill="#663D00"/>
<path d="M36 5.64001H30V11.64H36V5.64001Z" fill="#663D00"/>
<path d="M12 11.64H6V17.64H12V11.64Z" fill="#663D00"/>
<path d="M18 11.64H12V17.64H18V11.64Z" fill="#FFEEDD"/>
<path d="M24 11.64H18V17.64H24V11.64Z" fill="#FFEEDD"/>
<path d="M30 11.64H24V17.64H30V11.64Z" fill="#FFEEDD"/>
<path d="M36 11.64H30V17.64H36V11.64Z" fill="#FFEEDD"/>
<path d="M12 17.64H6V23.64H12V17.64Z" fill="#FFEEDD"/>
<path d="M18 17.64H12V23.64H18V17.64Z" fill="#FFEEDD"/>
<path d="M24 17.64H18V23.64H24V17.64Z" fill="#001A2F"/>
<path d="M30 17.64H24V23.64H30V17.64Z" fill="#FFEEDD"/>
<path d="M36 17.64H30V23.64H36V17.64Z" fill="#001A2F"/>
<path d="M12 23.64H6V29.64H12V23.64Z" fill="#FFEEDD"/>
<path d="M18 23.64H12V29.64H18V23.64Z" fill="#FFEEDD"/>
<path d="M24 23.64H18V29.64H24V23.64Z" fill="#FFEEDD"/>
<path d="M30 23.64H24V29.64H30V23.64Z" fill="#FFEEDD"/>
<path d="M36 23.64H30V29.64H36V23.64Z" fill="#FFEEDD"/>
<path d="M18 29.64H12V35.64H18V29.64Z" fill="#2688BF"/>
<path d="M24 29.64H18V35.64H24V29.64Z" fill="#3197D0"/>
<path d="M30 29.64H24V35.64H30V29.64Z" fill="#3197D0"/>
<path d="M36 29.64H30V35.64H36V29.64Z" fill="#3197D0"/>
<path d="M42 29.64H36V35.64H42V29.64Z" fill="#2678A6"/>
<path d="M18 35.64H12V41.64H18V35.64Z" fill="#2688BF"/>
<path d="M24 35.64H18V41.64H24V35.64Z" fill="#2688BF"/>
<path d="M30 35.64H24V41.64H30V35.64Z" fill="#3197D0"/>
<path d="M36 35.64H30V41.64H36V35.64Z" fill="#2688BF"/>
<path d="M42 35.64H36V41.64H42V35.64Z" fill="#FFEECC"/>
<path d="M12 41.64H6V47.64H12V41.64Z" fill="#2678A6"/>
<path d="M18 41.64H12V47.64H18V41.64Z" fill="#2678A6"/>
<path d="M24 41.64H18V47.64H24V41.64Z" fill="#2678A6"/>
<path d="M30 41.64H24V47.64H30V41.64Z" fill="#2678A6"/>
<path d="M36 41.64H30V47.64H36V41.64Z" fill="#2678A6"/>
<path d="M18 47.64H12V53.64H18V47.64Z" fill="#001A2F"/>
<path d="M30 47.64H24V53.64H30V47.64Z" fill="#001A2F"/>
<path d="M12 29.64H6V35.64H12V29.64Z" fill="#2678A6"/>
<path d="M12 35.64H6V41.64H12V35.64Z" fill="#2678A6"/>
<path d="M6 29.64H0V35.64H6V29.64Z" fill="#2678A6"/>
<path d="M6 35.64H0V41.64H6V35.64Z" fill="#FFEECC"/>
<path d="M12 1.76001H6V7.76001H12V1.76001Z" fill="#F7F7F7"/>
<path d="M18 1.76001H12V7.76001H18V1.76001Z" fill="#F7F7F7"/>
<path d="M24 1.76001H18V7.76001H24V1.76001Z" fill="#F7F7F7"/>
<path d="M24 0H18V6H24V0Z" fill="#F7F7F7"/>
<path d="M30 1.76001H24V7.76001H30V1.76001Z" fill="#F7F7F7"/>
<path d="M36 1.76001H30V7.76001H36V1.76001Z" fill="#F7F7F7"/>
</g>
<defs>
<clipPath id="clip0_40_65">
<rect width="42" height="53.64" fill="white"/>
</clipPath>
</defs>
</svg>
