<svg width="412" height="75" viewBox="0 0 412 75" fill="none" xmlns="http://www.w3.org/2000/svg">
<g clip-path="url(#clip0_37_1371)">
<path d="M267 0H151.912V34.8227H267V0Z" fill="#A3C254"/>
<path d="M267 5.95819H258.305V13.102H240.832V18.0134H215.466V30.5134H204.193V13.102H189.54V19.3495H170.375V28.2809H151.912V34.8227H267V5.95819Z" fill="#8BA748"/>
<path d="M267 34.8228H151.912V75H267V34.8228Z" fill="#7F4D2E"/>
<path d="M267 65.7809V46.5853H264.506V53.2809H250.414V45.6923H237.451V39.4415H232.379V44.3528H227.869V51.495H218.287V44.3528H205.884V53.2809H196.302V41.6739H178.266V46.5853H163.047V54.6204H151.912V62.6572H165.303V75H172.629V58.6388H183.339V66.6773H191.23V61.3177H208.704V68.4599H217.159V61.7625H233.506V69.801H245.904V63.9967H256.614V65.7809H267Z" fill="#945835"/>
<path d="M239.563 52.01H232.094V57.8127H239.563V52.01Z" fill="#7F4D2E"/>
<path d="M256.332 56.5485H248.864V62.3512H256.332V56.5485Z" fill="#7F4D2E"/>
<path d="M224.624 57.8127H217.159V63.6171H224.624V57.8127Z" fill="#7F4D2E"/>
<path d="M198.698 58.2325H191.23V64.0351H198.698V58.2325Z" fill="#7F4D2E"/>
<path d="M185.546 46.2057H178.08V52.0084H185.546V46.2057Z" fill="#7F4D2E"/>
<path d="M166.007 54.4649H158.537V60.2675H166.007V54.4649Z" fill="#7F4D2E"/>
<path d="M238.578 29.4649H229.558V35.2675H238.578V29.4649Z" fill="#7F4D2E"/>
<path d="M195.173 31.9197H186.157V37.7241H195.173V31.9197Z" fill="#7F4D2E"/>
<path d="M229.558 32.3662H220.541V38.1706H229.558V32.3662Z" fill="#8BA748"/>
<path d="M256.332 32.0753H247.316V37.8796H256.332V32.0753Z" fill="#8BA748"/>
<path d="M210.677 33.5937H201.657V39.398H210.677V33.5937Z" fill="#8BA748"/>
<path d="M175.446 31.9197H166.43V37.7241H175.446V31.9197Z" fill="#8BA748"/>
<path d="M158.992 0H-131V34.8227H158.992V0Z" fill="#A3C254"/>
<path d="M150.695 9.08194V14.4398H145.058V19.7977H132.095V24.2609H119.693V16.6722H114.057V14.4398H102.784V11.7625H92.6373V18.4565H87.5648V28.2809H81.9264V18.4565H72.9101V9.52842H66.709V22.0301H46.4159V9.97659H27.8141V18.9047H17.6692V23.3696H4.70592V17.5652H0.196152V20.2441H-12.7672V5.95819H-24.6034V13.102H-42.0781V18.0134H-67.4437V30.5134H-78.7156V13.102H-93.3736V19.3495H-112.538V28.2809H-131V34.8227H158.992V9.08194H150.695Z" fill="#8BA748"/>
<path d="M158.992 34.8228H-131V75H158.992V34.8228Z" fill="#7F4D2E"/>
<path d="M149.568 55.5134H158.992V51.495H152.949V38.9933H137.166V46.1371H119.693V34.8228H113.491V44.3529H105.601V47.9248H95.4557V44.3529H80.235V49.709H65.5803V34.8228H62.7619V43.4599H45.2872V52.8361H23.8704V45.6923H9.77838V41.6739H5.2686V55.5134H-10.5148V46.5853H-18.4056V53.2809H-32.4959V45.6923H-45.4625V39.4415H-50.535V44.3529H-55.0448V51.495H-64.627V44.3529H-77.0243V53.2809H-86.6065V41.6739H-104.646V46.5853H-119.865V54.6204H-131V62.6572H-117.611V75H-110.281V58.6388H-99.5748V66.6773H-91.6823V61.3177H-74.2092V68.4599H-65.7523V61.7626H-49.4063V69.801H-37.0057V63.9967H-26.2981V65.7809H-10.5148V61.3177H17.1065V58.6388H51.4883V68.4599H56.5658V63.1037H84.1837V75H94.893V55.5134H106.165V64.8896H114.62V58.1923H134.349V71.5853H147.877V65.7809H149.568V55.5134Z" fill="#945835"/>
<path d="M148.314 42.4114H151.101V42.3077C150.172 42.3311 149.243 42.3645 148.314 42.4114Z" fill="#A37458"/>
<path d="M131.53 29.4649H122.513V35.2675H131.53V29.4649Z" fill="#7F4D2E"/>
<path d="M41.9061 29.4649H32.8899V35.2675H41.9061V29.4649Z" fill="#7F4D2E"/>
<path d="M18.986 48.5117H11.518V54.3161H18.986V48.5117Z" fill="#7F4D2E"/>
<path d="M11.6113 57.0685H4.14325V62.8729H11.6113V57.0685Z" fill="#7F4D2E"/>
<path d="M39.5122 50.3729H32.0442V56.1773H39.5122V50.3729Z" fill="#7F4D2E"/>
<path d="M62.0594 52.01H54.5914V57.8127H62.0594V52.01Z" fill="#7F4D2E"/>
<path d="M74.7413 54.9097H67.2717V60.714H74.7413V54.9097Z" fill="#7F4D2E"/>
<path d="M92.3559 47.4716H84.8879V53.2742H92.3559V47.4716Z" fill="#7F4D2E"/>
<path d="M111.732 49.4799H104.262V55.2826H111.732V49.4799Z" fill="#7F4D2E"/>
<path d="M141.794 47.4716H134.324V53.2742H141.794V47.4716Z" fill="#7F4D2E"/>
<path d="M147.525 57.8127H140.056V63.6171H147.525V57.8127Z" fill="#7F4D2E"/>
<path d="M129.981 54.9097H122.513V60.714H129.981V54.9097Z" fill="#7F4D2E"/>
<path d="M97.6548 64.3612H90.1851V70.1639H97.6548V64.3612Z" fill="#7F4D2E"/>
<path d="M68.9614 32.0753H59.9452V37.8796H68.9614V32.0753Z" fill="#7F4D2E"/>
<path d="M98.4255 31.9197H89.4093V37.7241H98.4255V31.9197Z" fill="#7F4D2E"/>
<path d="M8.64804 33.5937H-0.368164V39.398H8.64804V33.5937Z" fill="#8BA748"/>
<path d="M26.9701 32.0753H17.9539V37.8796H26.9701V32.0753Z" fill="#8BA748"/>
<path d="M59.9452 33.5937H50.9273V39.398H59.9452V33.5937Z" fill="#8BA748"/>
<path d="M84.8879 33.5937H75.8684V39.398H84.8879V33.5937Z" fill="#8BA748"/>
<path d="M112.506 33.5937H103.488V39.398H112.506V33.5937Z" fill="#8BA748"/>
<path d="M145.762 30.1338H136.744V35.9381H145.762V30.1338Z" fill="#8BA748"/>
<path d="M556.992 0H267V34.8227H556.992V0Z" fill="#A3C254"/>
<path d="M548.695 9.08194V14.4398H543.058V19.7977H530.095V24.2609H517.693V16.6722H512.057V14.4398H500.784V11.7625H490.637V18.4565H485.565V28.2809H479.926V18.4565H470.91V9.52842H464.709V22.0301H444.416V9.97659H425.814V18.9047H415.669V23.3696H402.706V17.5652H398.196V20.2441H385.233V5.95819H373.397V13.102H355.922V18.0134H330.558V30.5134H319.284V13.102H304.626V19.3495H285.462V28.2809H267V34.8227H556.992V9.08194H548.695Z" fill="#8BA748"/>
<path d="M556.992 34.8228H267V75H556.992V34.8228Z" fill="#7F4D2E"/>
<path d="M547.568 55.5134H556.992V51.495H550.949V38.9933H535.167V46.1371H517.693V34.8228H511.491V44.3529H503.601V47.9248H493.456V44.3529H478.235V49.709H463.58V34.8228H460.762V43.4599H443.287V52.8361H421.87V45.6923H407.778V41.6739H403.269V55.5134H387.485V46.5853H379.594V53.2809H365.504V45.6923H352.537V39.4415H347.467V44.3529H342.955V51.495H333.373V44.3529H320.976V53.2809H311.393V41.6739H293.354V46.5853H278.135V54.6204H267V62.6572H280.391V75H287.719V58.6388H298.427V66.6773H306.318V61.3177H323.791V68.4599H332.248V61.7626H348.595V69.801H360.994V63.9967H371.702V65.7809H387.485V61.3177H415.107V58.6388H449.488V68.4599H454.566V63.1037H482.184V75H492.893V55.5134H504.165V64.8896H512.62V58.1923H532.349V71.5853H545.878V65.7809H547.568V55.5134Z" fill="#945835"/>
<path d="M392.561 29.4649H383.542V35.2675H392.561V29.4649Z" fill="#7F4D2E"/>
<path d="M354.652 52.01H347.185V57.8127H354.652V52.01Z" fill="#7F4D2E"/>
<path d="M371.424 56.5485H363.954V62.3512H371.424V56.5485Z" fill="#7F4D2E"/>
<path d="M416.986 48.5117H409.518V54.3161H416.986V48.5117Z" fill="#7F4D2E"/>
<path d="M409.611 57.0685H402.143V62.8729H409.611V57.0685Z" fill="#7F4D2E"/>
<path d="M339.716 57.8127H332.248V63.6171H339.716V57.8127Z" fill="#7F4D2E"/>
<path d="M313.787 58.2325H306.318V64.0351H313.787V58.2325Z" fill="#7F4D2E"/>
<path d="M300.636 46.2057H293.166V52.0084H300.636V46.2057Z" fill="#7F4D2E"/>
<path d="M281.095 54.4649H273.627V60.2675H281.095V54.4649Z" fill="#7F4D2E"/>
<path d="M353.666 29.4649H344.647V35.2675H353.666V29.4649Z" fill="#7F4D2E"/>
<path d="M310.265 31.9197H301.245V37.7241H310.265V31.9197Z" fill="#7F4D2E"/>
<path d="M344.647 32.3662H335.63V38.1706H344.647V32.3662Z" fill="#8BA748"/>
<path d="M371.424 32.0753H362.404V37.8796H371.424V32.0753Z" fill="#8BA748"/>
<path d="M406.65 33.5937H397.633V39.398H406.65V33.5937Z" fill="#8BA748"/>
<path d="M325.765 33.5937H316.749V39.398H325.765V33.5937Z" fill="#8BA748"/>
<path d="M290.536 31.9197H281.52V37.7241H290.536V31.9197Z" fill="#8BA748"/>
</g>
<defs>
<clipPath id="clip0_37_1371">
<rect width="796" height="75" fill="white" transform="translate(-131)"/>
</clipPath>
</defs>
</svg>
